<svg width="30" height="23" viewBox="0 0 30 23" fill="none" xmlns="http://www.w3.org/2000/svg">
<path d="M18.3516 9.30453C18.3515 9.26747 18.3355 9.1735 18.2821 9.01976C18.2309 8.87235 18.1511 8.68677 18.0412 8.47435C17.8214 8.04974 17.4832 7.52499 17.0129 6.98991C16.7698 6.71337 16.4913 6.43499 16.1767 6.16564C16.1732 6.16354 16.1694 6.16189 16.166 6.15974C16.0067 6.05845 15.8901 6.024 15.8105 6.02085C15.7379 6.01798 15.687 6.04023 15.6439 6.08037C15.5413 6.17606 15.4598 6.40133 15.4524 6.74054C15.4453 7.06586 15.5083 7.44279 15.6301 7.77718C15.7537 8.1161 15.927 8.38218 16.1204 8.51887L16.2828 8.62666C16.6814 8.87739 17.2126 9.11741 17.6623 9.24446C17.9228 9.31803 18.1322 9.34679 18.2646 9.33241C18.3182 9.32656 18.3427 9.31403 18.3516 9.30882V9.30453ZM12.5293 4.43934C11.9943 5.08358 11.7507 5.69537 11.6968 6.21445C11.6298 6.86026 11.8503 7.37594 12.177 7.67851C12.5031 7.98048 12.9346 8.07446 13.3342 7.89302L13.4892 7.81419C13.8225 7.62341 13.9603 7.3885 13.9991 7.14544C14.0465 6.84814 13.9538 6.49092 13.7651 6.10933C13.4346 5.44109 12.8597 4.79444 12.5293 4.43934ZM17.5583 1.78526C17.5501 1.61043 17.3684 1.48102 17.1752 1.55305C15.1155 2.32244 13.7669 3.18377 12.922 4.01406C14.383 4.3775 15.5381 5.05175 16.4223 5.80043C16.4804 5.83147 16.5689 5.86295 16.6945 5.88677C16.8361 5.91361 17.0111 5.9299 17.215 5.93504C17.6231 5.9453 18.1307 5.91086 18.6896 5.84065C19.8071 5.70029 21.1077 5.41913 22.1852 5.08235C22.7241 4.91387 23.2022 4.73337 23.5711 4.55196C23.7555 4.46126 23.9086 4.37178 24.0274 4.2865C24.1482 4.19973 24.2223 4.12484 24.2603 4.06555C24.2958 4.0102 24.2904 3.98606 24.2879 3.9776C24.2829 3.96082 24.259 3.91362 24.1579 3.84835C23.9514 3.71499 23.5347 3.57793 22.8235 3.46491C20.805 3.14419 19.0811 3.24592 17.8061 3.50352C17.7711 3.61657 17.7313 3.72692 17.6846 3.8328C17.5438 4.15217 17.3433 4.44138 17.0617 4.65064C16.7778 4.86155 16.4243 4.98204 15.9963 4.98206C15.7017 4.98206 15.4581 4.94472 15.2937 4.85174C15.2074 4.8029 15.1267 4.72911 15.0868 4.62221C15.046 4.51292 15.0606 4.4038 15.099 4.31224C15.1699 4.1433 15.3372 3.99155 15.5352 3.86015C15.742 3.72291 16.0163 3.58589 16.348 3.45901C16.6625 3.33871 17.0335 3.22625 17.4549 3.12973C17.5534 2.69578 17.5785 2.21874 17.5583 1.78526ZM17.3026 3.61721C17.0026 3.69458 16.7349 3.78069 16.5019 3.8698C16.1904 3.98896 15.9468 4.11279 15.7739 4.22751C15.6113 4.3354 15.5356 4.42066 15.5081 4.46883C15.5725 4.50442 15.7218 4.54284 15.9963 4.54284C16.3391 4.54282 16.6008 4.44794 16.8044 4.29669C17.0102 4.14372 17.1691 3.9233 17.2877 3.65422C17.2931 3.64215 17.2974 3.62944 17.3026 3.61721ZM9.5829 0.0391115C9.68144 -0.029947 9.81688 -0.00511286 9.88534 0.094349L9.52825 0.345331C9.45982 0.245661 9.48429 0.108274 9.5829 0.0391115ZM18.7861 9.30453C18.7861 9.43968 18.7349 9.56138 18.6312 9.64721C18.5369 9.7253 18.4191 9.75718 18.3107 9.76895C18.0946 9.79242 17.8212 9.74543 17.5456 9.66759C17.0573 9.52965 16.4864 9.27281 16.0498 8.99777L15.8716 8.87925C15.5747 8.66954 15.3602 8.30783 15.2221 7.92895C15.0823 7.54546 15.0095 7.11386 15.0178 6.73089C15.0259 6.36185 15.1108 5.97889 15.3489 5.75699C15.3962 5.71296 15.4484 5.67627 15.5049 5.64813C14.8628 5.20477 14.1028 4.81639 13.2143 4.54928C13.5308 4.92047 13.9034 5.40736 14.1535 5.91305C14.3579 6.32638 14.4971 6.78378 14.4283 7.21516C14.3609 7.63783 14.1013 7.99526 13.6128 8.24536L13.5125 8.29363C12.9354 8.55564 12.3214 8.40779 11.8836 8.00242C11.4464 7.59763 11.1842 6.94033 11.2644 6.16832C11.3237 5.59665 11.568 4.96938 12.0587 4.32833C11.7824 4.28416 11.4696 4.21284 11.1439 4.12776C10.5903 3.98313 9.97658 3.79355 9.40038 3.61399C8.82109 3.43348 8.28234 3.26416 7.8696 3.15601C7.66255 3.10175 7.49536 3.06486 7.37455 3.04928C7.37077 3.0488 7.36703 3.04865 7.36341 3.04821C7.43118 3.59934 7.66372 4.34793 8.15188 4.92092C8.63882 5.49245 9.38941 5.90245 10.5369 5.75538L10.581 5.75431C10.6817 5.76204 10.7667 5.84053 10.7799 5.94577C10.795 6.06612 10.7106 6.17612 10.5916 6.19139L10.3533 6.21552C9.18428 6.29835 8.36509 5.84481 7.82238 5.20784C7.32441 4.62336 7.06689 3.89444 6.96334 3.31046L6.92779 3.0702C6.92779 3.0702 6.92707 3.0652 6.92301 3.04982C6.91973 3.03739 6.9117 3.00888 6.90656 2.98171C6.89765 2.93446 6.87752 2.79411 6.99358 2.6889L7.02223 2.66584C7.09122 2.6178 7.16983 2.6071 7.21802 2.60363C7.28284 2.59898 7.35588 2.6043 7.42973 2.61382C7.57852 2.63302 7.76732 2.67529 7.9789 2.73073C8.40363 2.84204 8.954 3.01514 9.52825 3.19408C10.1057 3.37402 10.7103 3.56077 11.2527 3.70248C11.5506 3.7803 11.8234 3.84186 12.0587 3.88267C11.7902 3.53716 11.4365 3.05706 11.0744 2.55161C10.5112 1.76539 9.90998 0.901327 9.52825 0.345331L9.70706 0.21984L9.88534 0.094349C10.2659 0.648686 10.8656 1.51087 11.4267 2.29419C11.8652 2.90622 12.2724 3.45891 12.5341 3.78346C13.437 2.8655 14.8743 1.94383 17.0246 1.14064C17.4624 0.977284 17.9694 1.26058 17.9929 1.76488C18.0112 2.15884 17.995 2.60355 17.9181 3.03427C19.2238 2.79493 20.9266 2.71894 22.8909 3.03105C23.6089 3.14515 24.1038 3.29229 24.3919 3.47831C24.5376 3.57241 24.657 3.69363 24.7039 3.85157C24.7532 4.01788 24.7082 4.17554 24.6254 4.30473C24.5451 4.4299 24.4216 4.54262 24.2794 4.64474C24.1351 4.74841 23.959 4.84929 23.761 4.94667C23.365 5.14139 22.8644 5.33008 22.3136 5.50226C21.2114 5.84676 19.8857 6.13314 18.7432 6.27665C18.1721 6.34839 17.6412 6.38527 17.2039 6.37426C17.144 6.37275 17.0856 6.36959 17.0288 6.36621C17.1369 6.47701 17.2403 6.58743 17.3376 6.69818C17.8321 7.26076 18.1906 7.81514 18.4264 8.27057C18.5442 8.49817 18.6329 8.7031 18.6922 8.87389C18.7492 9.03801 18.7861 9.19012 18.7861 9.30453Z" fill="#99A871"/>
<path d="M0 9.92494C4.81721e-05 6.53501 1.53476 4.4464 3.45895 3.22709C5.25105 2.09156 7.37143 1.71451 8.88488 1.7119L9.1791 1.71609L9.22195 1.72185C9.31882 1.74495 9.38932 1.83404 9.38604 1.93771C9.3822 2.05605 9.28355 2.14887 9.16551 2.14518L8.88279 2.14099C7.43013 2.14387 5.39498 2.50795 3.68784 3.58964C1.87972 4.73532 0.428562 6.69129 0.428515 9.92494C0.428515 18.0454 7.51041 22.8415 15.2326 22.5589L15.5937 22.5426C19.3094 22.3424 22.5926 21.1649 24.9652 19.2005C27.4102 17.176 28.8965 14.3092 28.8965 10.7816C28.8965 7.36832 27.4824 4.99694 25.7877 3.44033C24.1918 1.97457 22.3501 1.23419 21.2115 1.03446L20.9936 1.00198L20.9512 0.992024C20.8569 0.96018 20.7949 0.865435 20.8075 0.762545C20.8202 0.659668 20.9033 0.582947 21.0024 0.57498L21.0458 0.575504L21.281 0.61113C22.5043 0.824826 24.4216 1.60367 26.0767 3.12387C27.8494 4.75213 29.325 7.23431 29.325 10.7816C29.325 14.4425 27.7773 17.429 25.2379 19.5316C22.7816 21.5654 19.4052 22.7671 15.6162 22.9712L15.2483 22.988C7.36645 23.2764 0 18.3642 0 9.92494ZM26.2575 8.05086C26.3088 8.6518 26.3173 9.48215 26.2105 10.2671C26.1119 10.991 25.9091 11.7228 25.5092 12.1825C25.6479 12.8721 25.5393 13.7244 24.789 14.2704C24.934 14.6351 25.0058 15.0671 24.9176 15.511C24.8203 16.0004 24.533 16.4834 23.979 16.8911L23.8646 16.9717C23.2784 17.3665 22.6971 17.5015 22.218 17.4642C21.7506 17.4278 21.3446 17.2204 21.1791 16.8895L21.3709 16.7936L21.5621 16.6972C21.6348 16.8424 21.8658 17.0061 22.2509 17.0362C22.6242 17.0653 23.1115 16.9622 23.6263 16.6155L23.7251 16.5458C24.2022 16.1951 24.4231 15.8011 24.4974 15.4272C24.5621 15.1018 24.5175 14.7768 24.4133 14.4889L24.3109 14.536C23.8598 14.7233 23.5055 14.7739 23.249 14.6806C23.1137 14.6314 23.011 14.5435 22.947 14.4286C22.8849 14.3172 22.8664 14.1935 22.8722 14.0781C22.8837 13.8514 22.9908 13.6159 23.1414 13.4462C23.2892 13.2798 23.523 13.1317 23.7935 13.1906L23.8604 13.2089C24.0158 13.2605 24.167 13.3707 24.2983 13.5028C24.4026 13.6078 24.5014 13.7361 24.591 13.8801C25.0431 13.5179 25.1725 12.999 25.124 12.4974C24.9344 12.602 24.7185 12.6592 24.4745 12.6525L24.3966 12.6483C23.8802 12.6069 23.5209 12.472 23.3483 12.2245C23.1591 11.9531 23.2542 11.6492 23.4011 11.4359C23.5509 11.2185 23.7905 11.0308 24.0355 10.9241C24.2694 10.8222 24.5795 10.766 24.8214 10.9314L24.8763 10.9723C25.0027 11.0743 25.118 11.2219 25.2144 11.3883C25.2642 11.4741 25.3096 11.5683 25.3513 11.668C25.5666 11.3028 25.708 10.7866 25.7866 10.2089C25.8883 9.4621 25.8804 8.66412 25.8311 8.08702L26.0443 8.0692L26.2575 8.05086ZM21.2747 16.6018C21.3804 16.5487 21.5091 16.5913 21.5621 16.6972L21.1791 16.8895C21.1263 16.7836 21.1692 16.655 21.2747 16.6018ZM23.7026 13.6097C23.6467 13.5976 23.5584 13.6222 23.4612 13.7318C23.3666 13.8384 23.3057 13.983 23.2997 14.0996C23.2968 14.1557 23.3071 14.1947 23.3206 14.219C23.3322 14.2399 23.3519 14.2615 23.3948 14.2772C23.495 14.3137 23.7213 14.3168 24.1473 14.1399L24.2257 14.1038C24.1529 13.9873 24.0748 13.8857 23.9952 13.8057C23.903 13.7128 23.8203 13.6571 23.758 13.6291L23.7026 13.6097ZM24.5805 11.2856C24.5246 11.2473 24.3974 11.2349 24.2064 11.3181C24.0265 11.3964 23.853 11.5354 23.7533 11.6801C23.6508 11.8289 23.6599 11.9227 23.6989 11.9787C23.7547 12.0586 23.9384 12.1807 24.4306 12.2203L24.5356 12.2234C24.7297 12.219 24.892 12.1555 25.0331 12.0458C24.9824 11.8804 24.9168 11.7294 24.8439 11.6036C24.7745 11.4838 24.7037 11.394 24.6406 11.3348L24.5805 11.2856ZM26.026 7.85492C26.1437 7.84491 26.2474 7.93284 26.2575 8.05086L25.8311 8.08702C25.8211 7.96902 25.9083 7.86503 26.026 7.85492Z" fill="#F58635"/>
</svg>
